<svg version="1.2" baseProfile="tiny-ps" xmlns="http://www.w3.org/2000/svg" viewBox="0 0 200 56" width="200" height="56">
	<title>logo-3-svg</title>
	<style>
		tspan { white-space:pre }
		.shp0 { fill: #394149 } 
	</style>
	<path id="Layer" class="shp0" d="M76.27 36.28C76.1 36.29 75.93 36.28 75.78 36.27C75.61 36.24 75.45 36.21 75.28 36.16C75.12 36.12 74.97 36.06 74.82 35.99C74.67 35.92 74.53 35.84 74.39 35.74C74.28 35.65 74.18 35.56 74.09 35.45C74 35.34 73.92 35.22 73.85 35.09C73.8 34.97 73.75 34.83 73.72 34.7C73.7 34.55 73.69 34.42 73.69 34.27L73.69 23.89C73.69 23.84 73.69 23.8 73.7 23.76C73.71 23.72 73.74 23.68 73.76 23.64C73.8 23.62 73.84 23.59 73.88 23.58C73.92 23.56 73.97 23.56 74.01 23.56L75.9 23.56C76.11 23.56 76.21 23.68 76.21 23.89L76.21 33.47C76.21 33.89 76.4 34.1 76.8 34.1C76.84 34.1 76.88 34.1 76.92 34.1C76.97 34.1 77.01 34.1 77.04 34.09C77.09 34.09 77.13 34.08 77.17 34.08C77.21 34.07 77.25 34.06 77.29 34.05C77.52 34.05 77.64 34.12 77.65 34.32L77.82 35.72C77.83 35.76 77.83 35.8 77.82 35.84C77.81 35.88 77.79 35.92 77.76 35.95C77.74 35.99 77.71 36.01 77.67 36.03C77.63 36.05 77.6 36.06 77.55 36.06C77.45 36.1 77.35 36.13 77.24 36.15C77.13 36.18 77.02 36.2 76.92 36.22C76.81 36.23 76.71 36.25 76.6 36.27C76.48 36.27 76.38 36.28 76.27 36.28L76.27 36.28Z" />
	<path id="Layer" fill-rule="evenodd" class="shp0" d="M86.89 35.08C86.42 35.47 85.89 35.77 85.3 35.97C84.73 36.18 84.12 36.29 83.52 36.29C82.91 36.29 82.3 36.18 81.73 35.97C81.15 35.77 80.62 35.47 80.15 35.08C79.73 34.66 79.4 34.17 79.18 33.63C78.96 33.08 78.84 32.51 78.84 31.92C78.84 31.34 78.96 30.77 79.18 30.22C79.4 29.68 79.73 29.19 80.15 28.77C80.62 28.39 81.16 28.09 81.73 27.88C82.3 27.68 82.91 27.57 83.52 27.57C84.12 27.57 84.73 27.68 85.3 27.88C85.88 28.09 86.42 28.39 86.89 28.77C87.29 29.19 87.61 29.68 87.83 30.23C88.04 30.77 88.16 31.34 88.16 31.92C88.16 32.5 88.04 33.07 87.83 33.61C87.61 34.16 87.29 34.65 86.89 35.07L86.89 35.08ZM81.92 33.6C82.13 33.8 82.39 33.95 82.66 34.06C82.94 34.16 83.24 34.22 83.53 34.22C83.82 34.22 84.11 34.16 84.39 34.06C84.66 33.95 84.92 33.8 85.13 33.6C85.34 33.38 85.48 33.12 85.6 32.83C85.7 32.55 85.75 32.26 85.75 31.95C85.75 31.65 85.7 31.36 85.6 31.08C85.48 30.79 85.34 30.53 85.13 30.31C84.92 30.11 84.66 29.96 84.39 29.85C84.11 29.75 83.82 29.69 83.53 29.69C83.24 29.69 82.94 29.75 82.66 29.85C82.39 29.96 82.13 30.11 81.92 30.31C81.72 30.53 81.57 30.79 81.46 31.08C81.36 31.36 81.3 31.65 81.3 31.95C81.3 32.26 81.36 32.55 81.46 32.83C81.57 33.12 81.72 33.38 81.92 33.6Z" />
	<path id="Layer" fill-rule="evenodd" class="shp0" d="M98.55 27.85C98.76 27.85 98.87 27.97 98.87 28.18L98.87 36.21C98.88 36.48 98.85 36.75 98.81 37.02C98.75 37.28 98.67 37.54 98.56 37.79C98.46 38.04 98.33 38.27 98.17 38.49C98 38.71 97.82 38.91 97.62 39.09C97.39 39.28 97.15 39.45 96.9 39.59C96.64 39.74 96.37 39.86 96.09 39.96C95.81 40.05 95.53 40.12 95.24 40.16C94.94 40.21 94.64 40.22 94.35 40.21C94.08 40.22 93.81 40.21 93.55 40.17C93.28 40.14 93.02 40.1 92.76 40.02C92.51 39.95 92.25 39.86 92.01 39.75C91.76 39.64 91.53 39.51 91.3 39.37C91.11 39.24 90.93 39.1 90.76 38.93C90.61 38.77 90.46 38.6 90.34 38.4C90.2 38.2 90.1 38 90.02 37.79C89.93 37.58 89.87 37.35 89.83 37.13C89.83 36.9 89.83 36.8 90.13 36.8L92.02 36.8C92.07 36.8 92.1 36.81 92.13 36.83C92.18 36.84 92.21 36.86 92.25 36.88C92.28 36.9 92.3 36.93 92.34 36.96C92.36 36.99 92.38 37.03 92.39 37.06C92.43 37.15 92.46 37.23 92.51 37.31C92.55 37.39 92.61 37.45 92.66 37.52C92.72 37.59 92.79 37.65 92.85 37.71C92.92 37.77 93 37.81 93.08 37.86C93.18 37.9 93.27 37.95 93.38 37.99C93.48 38.02 93.58 38.06 93.69 38.08C93.8 38.1 93.9 38.12 94.01 38.14C94.12 38.15 94.22 38.15 94.34 38.15C94.47 38.16 94.6 38.15 94.73 38.12C94.87 38.11 94.99 38.08 95.11 38.04C95.24 37.99 95.36 37.93 95.47 37.87C95.58 37.8 95.69 37.72 95.79 37.63C95.88 37.54 95.96 37.44 96.02 37.33C96.09 37.22 96.15 37.11 96.19 36.98C96.24 36.87 96.27 36.75 96.29 36.61C96.31 36.49 96.33 36.36 96.31 36.23L96.31 35.53C96.15 35.65 95.97 35.76 95.79 35.85C95.6 35.94 95.4 36.02 95.2 36.09C95.01 36.14 94.81 36.19 94.6 36.22C94.39 36.25 94.18 36.27 93.98 36.25C93.69 36.27 93.39 36.24 93.1 36.2C92.81 36.15 92.53 36.08 92.26 35.96C91.99 35.86 91.72 35.73 91.47 35.57C91.22 35.41 91 35.24 90.79 35.03C90.38 34.62 90.07 34.14 89.85 33.6C89.64 33.06 89.53 32.49 89.53 31.92C89.53 31.35 89.64 30.78 89.85 30.24C90.07 29.7 90.38 29.22 90.79 28.81C91 28.6 91.22 28.43 91.47 28.27C91.72 28.11 91.99 27.99 92.26 27.88C92.53 27.78 92.82 27.7 93.1 27.65C93.39 27.61 93.69 27.59 93.98 27.6C94.19 27.59 94.4 27.61 94.62 27.63C94.83 27.66 95.03 27.71 95.24 27.78C95.45 27.84 95.64 27.92 95.83 28.02C96.02 28.12 96.2 28.24 96.37 28.37L96.37 28.19C96.37 28.15 96.37 28.1 96.38 28.07C96.39 28.02 96.42 27.99 96.45 27.96C96.48 27.92 96.52 27.9 96.56 27.89C96.6 27.87 96.64 27.87 96.69 27.87L98.55 27.85ZM94.62 34.23C94.76 34.2 94.9 34.16 95.03 34.1C95.17 34.05 95.29 33.97 95.4 33.89C95.53 33.8 95.63 33.71 95.73 33.6C95.92 33.36 96.06 33.1 96.16 32.8C96.26 32.52 96.3 32.22 96.3 31.92C96.3 31.62 96.26 31.32 96.16 31.04C96.06 30.74 95.92 30.48 95.73 30.24C95.63 30.14 95.53 30.04 95.42 29.96C95.29 29.87 95.17 29.8 95.03 29.75C94.91 29.69 94.76 29.65 94.63 29.62C94.48 29.6 94.35 29.59 94.2 29.59C94.06 29.59 93.91 29.6 93.76 29.62C93.62 29.65 93.48 29.69 93.35 29.75C93.21 29.8 93.09 29.88 92.97 29.96C92.84 30.05 92.74 30.14 92.64 30.25C92.54 30.36 92.45 30.49 92.37 30.62C92.29 30.76 92.22 30.89 92.17 31.04C92.12 31.18 92.08 31.33 92.06 31.47C92.03 31.63 92.02 31.77 92.03 31.93C92.03 32.08 92.03 32.23 92.06 32.38C92.09 32.54 92.12 32.68 92.17 32.83C92.22 32.96 92.29 33.11 92.36 33.23C92.44 33.36 92.53 33.49 92.63 33.6C92.73 33.71 92.84 33.8 92.96 33.89C93.08 33.97 93.2 34.05 93.34 34.1C93.47 34.16 93.61 34.2 93.75 34.23C93.9 34.25 94.04 34.26 94.19 34.26C94.34 34.26 94.48 34.25 94.62 34.23Z" />
	<path id="Layer" fill-rule="evenodd" class="shp0" d="M108.56 35.08C108.09 35.46 107.55 35.76 106.98 35.97C106.4 36.18 105.8 36.28 105.19 36.28C104.58 36.28 103.98 36.18 103.4 35.97C102.83 35.76 102.29 35.46 101.82 35.08C101.42 34.65 101.1 34.16 100.88 33.62C100.66 33.08 100.55 32.5 100.55 31.92C100.55 31.35 100.66 30.77 100.88 30.23C101.1 29.69 101.42 29.2 101.82 28.77C102.29 28.39 102.83 28.09 103.4 27.89C103.98 27.68 104.58 27.57 105.19 27.57C105.8 27.57 106.4 27.68 106.98 27.89C107.55 28.09 108.09 28.39 108.56 28.77C108.97 29.19 109.28 29.68 109.51 30.23C109.72 30.77 109.83 31.34 109.83 31.92C109.83 32.5 109.72 33.07 109.51 33.61C109.28 34.16 108.97 34.65 108.56 35.07L108.56 35.08ZM103.58 33.6C103.7 33.7 103.81 33.79 103.93 33.87C104.06 33.95 104.19 34.01 104.33 34.07C104.47 34.13 104.62 34.16 104.76 34.18C104.91 34.22 105.06 34.22 105.2 34.22C105.35 34.22 105.49 34.2 105.64 34.18C105.79 34.16 105.93 34.12 106.07 34.07C106.2 34.01 106.34 33.95 106.46 33.87C106.58 33.79 106.7 33.7 106.81 33.6C107 33.38 107.16 33.11 107.26 32.83C107.36 32.55 107.42 32.26 107.42 31.95C107.42 31.65 107.36 31.36 107.26 31.08C107.16 30.8 107 30.53 106.81 30.31C106.7 30.21 106.58 30.12 106.46 30.04C106.34 29.96 106.2 29.89 106.07 29.84C105.93 29.79 105.79 29.75 105.64 29.72C105.49 29.7 105.35 29.69 105.2 29.69C105.06 29.69 104.91 29.69 104.76 29.72C104.62 29.75 104.47 29.78 104.33 29.84C104.19 29.89 104.06 29.96 103.93 30.04C103.81 30.12 103.7 30.21 103.58 30.31C103.39 30.53 103.24 30.8 103.13 31.08C103.03 31.36 102.98 31.65 102.98 31.95C102.98 32.26 103.03 32.55 103.13 32.83C103.24 33.11 103.39 33.38 103.58 33.6Z" />
	<path id="Layer" class="shp0" d="M113.89 25.95C113.74 26.07 113.57 26.17 113.39 26.25C113.2 26.32 113.01 26.35 112.82 26.35C112.62 26.35 112.43 26.32 112.24 26.25C112.06 26.17 111.89 26.07 111.74 25.95C111.61 25.83 111.49 25.67 111.43 25.5C111.35 25.33 111.31 25.14 111.31 24.96C111.31 24.79 111.35 24.6 111.43 24.43C111.49 24.26 111.61 24.1 111.74 23.98C111.89 23.86 112.06 23.76 112.25 23.69C112.43 23.62 112.62 23.59 112.82 23.59C113.01 23.59 113.2 23.62 113.38 23.69C113.57 23.76 113.74 23.86 113.89 23.98C114.02 24.1 114.13 24.26 114.2 24.43C114.28 24.6 114.31 24.79 114.31 24.96C114.31 25.14 114.28 25.33 114.2 25.5C114.13 25.67 114.02 25.83 113.89 25.95L113.89 25.95ZM114.12 36.28C113.96 36.29 113.79 36.28 113.63 36.27C113.46 36.24 113.3 36.21 113.15 36.16C112.98 36.12 112.83 36.06 112.67 35.99C112.53 35.92 112.38 35.83 112.25 35.74C112.13 35.65 112.03 35.56 111.94 35.45C111.85 35.34 111.78 35.21 111.72 35.09C111.66 34.97 111.62 34.83 111.58 34.69C111.56 34.55 111.55 34.42 111.55 34.27L111.55 28.18C111.55 28.13 111.55 28.09 111.56 28.04C111.57 28.01 111.61 27.97 111.63 27.93C111.66 27.91 111.71 27.88 111.74 27.87C111.79 27.85 111.83 27.85 111.88 27.85L113.76 27.85C113.98 27.85 114.08 27.97 114.08 28.18L114.08 33.47C114.08 33.89 114.27 34.1 114.65 34.1C114.7 34.1 114.74 34.1 114.78 34.1C114.82 34.1 114.87 34.1 114.91 34.09C114.94 34.09 114.99 34.08 115.03 34.07C115.08 34.07 115.11 34.06 115.16 34.05C115.38 34.05 115.51 34.12 115.52 34.32L115.69 35.72C115.7 35.76 115.7 35.8 115.69 35.84C115.67 35.88 115.65 35.92 115.63 35.95C115.61 35.99 115.57 36.01 115.54 36.03C115.49 36.05 115.46 36.06 115.42 36.06C115.31 36.1 115.2 36.13 115.1 36.15C114.99 36.18 114.89 36.2 114.78 36.22C114.67 36.24 114.56 36.25 114.45 36.27C114.34 36.27 114.24 36.28 114.12 36.28L114.12 36.28Z" />
	<path id="Layer" fill-rule="evenodd" class="shp0" d="M122.63 27.59C122.92 27.57 123.21 27.6 123.51 27.64C123.8 27.69 124.08 27.76 124.36 27.87C124.63 27.97 124.9 28.1 125.15 28.26C125.39 28.41 125.63 28.59 125.84 28.8C126.24 29.22 126.55 29.7 126.76 30.24C126.97 30.78 127.08 31.35 127.08 31.92C127.08 32.5 126.97 33.07 126.76 33.61C126.55 34.15 126.24 34.63 125.84 35.06C125.63 35.26 125.39 35.45 125.15 35.6C124.9 35.76 124.64 35.88 124.36 36C124.09 36.1 123.8 36.18 123.51 36.22C123.21 36.27 122.92 36.29 122.63 36.28C122.42 36.28 122.21 36.27 122 36.24C121.8 36.21 121.6 36.16 121.39 36.11C121.19 36.04 121 35.96 120.82 35.87C120.63 35.78 120.45 35.67 120.28 35.55L120.28 39.59C120.28 39.8 120.17 39.91 119.96 39.91L118.07 39.91C118.02 39.92 117.98 39.91 117.93 39.89C117.9 39.88 117.85 39.86 117.83 39.83C117.8 39.8 117.78 39.76 117.76 39.73C117.75 39.68 117.74 39.64 117.75 39.59L117.75 30.41C117.76 30.32 117.75 30.23 117.73 30.14C117.7 30.05 117.65 29.97 117.58 29.92C117.53 29.85 117.45 29.8 117.36 29.77C117.27 29.75 117.18 29.74 117.09 29.75L116.72 29.75C116.47 29.75 116.35 29.66 116.35 29.48L116.35 28.16C116.35 28.11 116.35 28.08 116.36 28.03C116.37 28 116.39 27.96 116.42 27.92C116.44 27.89 116.46 27.87 116.49 27.84C116.53 27.82 116.57 27.8 116.61 27.79C116.71 27.75 116.8 27.72 116.9 27.7C117 27.66 117.1 27.65 117.2 27.63C117.3 27.62 117.4 27.6 117.51 27.6C117.62 27.59 117.72 27.59 117.82 27.59C118.02 27.56 118.24 27.57 118.44 27.62C118.63 27.66 118.83 27.73 119.01 27.83C119.19 27.93 119.35 28.06 119.49 28.21C119.64 28.36 119.76 28.53 119.85 28.71C120.03 28.53 120.24 28.36 120.45 28.22C120.66 28.08 120.89 27.96 121.12 27.87C121.36 27.76 121.61 27.7 121.87 27.64C122.11 27.6 122.37 27.59 122.63 27.59ZM121.58 34.09C121.85 34.2 122.13 34.26 122.43 34.26C122.72 34.26 123 34.2 123.27 34.09C123.54 33.97 123.78 33.81 123.98 33.6C124.08 33.49 124.18 33.35 124.26 33.22C124.34 33.1 124.4 32.95 124.45 32.8C124.51 32.66 124.55 32.5 124.57 32.36C124.6 32.2 124.61 32.04 124.6 31.89C124.61 31.73 124.6 31.57 124.57 31.42C124.55 31.27 124.51 31.11 124.46 30.97C124.4 30.82 124.34 30.68 124.26 30.54C124.18 30.42 124.08 30.28 123.98 30.17C123.78 29.96 123.54 29.8 123.27 29.68C123 29.57 122.72 29.51 122.43 29.51C122.13 29.51 121.85 29.57 121.58 29.68C121.31 29.8 121.08 29.96 120.88 30.17C120.78 30.28 120.69 30.42 120.61 30.55C120.53 30.69 120.47 30.82 120.42 30.97C120.36 31.12 120.33 31.27 120.3 31.43C120.28 31.57 120.27 31.73 120.28 31.89C120.27 32.04 120.28 32.2 120.3 32.35C120.33 32.5 120.37 32.65 120.42 32.79C120.47 32.95 120.53 33.08 120.61 33.22C120.69 33.35 120.78 33.48 120.88 33.6C121.08 33.81 121.31 33.97 121.58 34.09Z" />
	<path id="Layer" class="shp0" d="M132.38 36.28C132.13 36.29 131.88 36.28 131.63 36.25C131.38 36.23 131.13 36.19 130.89 36.13C130.64 36.08 130.4 36 130.17 35.91C129.94 35.82 129.71 35.71 129.49 35.58C129.31 35.48 129.16 35.35 129.01 35.21C128.87 35.07 128.73 34.91 128.62 34.74C128.51 34.56 128.42 34.38 128.34 34.19C128.27 34 128.21 33.8 128.19 33.6C128.19 33.38 128.27 33.26 128.52 33.26L130.17 33.26C130.2 33.26 130.25 33.28 130.28 33.29C130.33 33.3 130.36 33.31 130.39 33.33C130.42 33.35 130.45 33.39 130.47 33.41C130.51 33.44 130.53 33.48 130.54 33.51C130.78 34.12 131.39 34.42 132.38 34.42C132.47 34.42 132.55 34.42 132.64 34.42C132.73 34.41 132.81 34.4 132.9 34.37C132.98 34.36 133.06 34.34 133.15 34.32C133.22 34.28 133.3 34.25 133.38 34.22C133.44 34.19 133.48 34.16 133.53 34.13C133.57 34.08 133.62 34.05 133.65 33.99C133.69 33.95 133.71 33.89 133.73 33.84C133.75 33.78 133.76 33.72 133.76 33.67C133.76 33.38 133.58 33.17 133.22 33.04C133.12 33.01 133.01 32.97 132.9 32.94C132.8 32.92 132.69 32.88 132.57 32.86C132.46 32.84 132.36 32.82 132.25 32.8C132.13 32.78 132.02 32.77 131.91 32.76C131.78 32.75 131.64 32.73 131.52 32.7C131.38 32.69 131.25 32.67 131.12 32.65C130.99 32.63 130.85 32.59 130.73 32.57C130.6 32.54 130.47 32.51 130.34 32.48C130.21 32.45 130.09 32.41 129.97 32.37C129.85 32.32 129.73 32.27 129.62 32.2C129.52 32.14 129.4 32.07 129.3 31.99C129.2 31.91 129.11 31.82 129.02 31.73C128.81 31.47 128.66 31.18 128.57 30.87C128.48 30.54 128.46 30.22 128.51 29.89C128.55 29.57 128.66 29.25 128.83 28.97C129.01 28.69 129.24 28.45 129.51 28.26C129.71 28.13 129.92 28.02 130.13 27.92C130.35 27.83 130.58 27.75 130.81 27.69C131.04 27.63 131.27 27.59 131.52 27.56C131.75 27.54 131.99 27.53 132.22 27.54C132.46 27.53 132.69 27.54 132.92 27.56C133.15 27.59 133.37 27.63 133.6 27.69C133.82 27.74 134.04 27.81 134.26 27.9C134.47 27.99 134.67 28.09 134.88 28.2C135.03 28.29 135.19 28.4 135.33 28.53C135.46 28.65 135.58 28.8 135.7 28.94C135.8 29.1 135.89 29.25 135.96 29.42C136.03 29.6 136.08 29.78 136.11 29.96C136.11 30.18 136.01 30.3 135.81 30.3L134.15 30.3C134.11 30.3 134.08 30.3 134.04 30.28C134.01 30.27 133.98 30.26 133.94 30.25C133.92 30.23 133.89 30.21 133.87 30.18C133.84 30.15 133.82 30.13 133.81 30.09C133.79 30.03 133.75 29.97 133.71 29.9C133.67 29.85 133.63 29.79 133.57 29.74C133.53 29.69 133.47 29.65 133.42 29.6C133.35 29.57 133.29 29.53 133.22 29.5C133.15 29.47 133.08 29.43 133 29.4C132.92 29.37 132.84 29.34 132.75 29.33C132.67 29.31 132.6 29.3 132.51 29.29C132.43 29.28 132.34 29.28 132.26 29.28C132.18 29.28 132.09 29.28 132.01 29.28C131.93 29.29 131.85 29.3 131.76 29.31C131.69 29.33 131.61 29.34 131.53 29.38C131.45 29.4 131.38 29.43 131.3 29.47C131.25 29.49 131.2 29.51 131.16 29.55C131.11 29.58 131.08 29.62 131.04 29.67C131.01 29.71 130.99 29.77 130.97 29.81C130.96 29.87 130.94 29.93 130.94 29.98C130.94 30.06 130.97 30.13 130.99 30.21C131.02 30.27 131.06 30.34 131.1 30.4C131.16 30.46 131.21 30.51 131.27 30.55C131.34 30.6 131.4 30.62 131.48 30.64C131.6 30.69 131.7 30.72 131.81 30.76C131.92 30.79 132.03 30.82 132.15 30.84C132.26 30.88 132.37 30.9 132.48 30.92C132.6 30.95 132.71 30.97 132.82 30.98C132.96 31 133.08 31.01 133.21 31.04C133.35 31.06 133.47 31.08 133.61 31.1C133.73 31.12 133.87 31.16 134 31.18C134.12 31.21 134.26 31.24 134.38 31.27C134.51 31.3 134.63 31.34 134.75 31.38C134.87 31.43 134.99 31.48 135.1 31.55C135.2 31.61 135.31 31.68 135.42 31.76C135.52 31.84 135.61 31.93 135.7 32.02C135.79 32.12 135.88 32.23 135.94 32.36C136.02 32.48 136.08 32.6 136.12 32.74C136.17 32.86 136.2 33 136.22 33.14C136.25 33.28 136.26 33.42 136.25 33.56C136.25 33.75 136.24 33.94 136.19 34.13C136.15 34.32 136.08 34.5 135.98 34.66C135.89 34.83 135.78 35 135.65 35.13C135.52 35.28 135.37 35.4 135.2 35.5C134.99 35.64 134.78 35.75 134.55 35.85C134.33 35.95 134.09 36.04 133.85 36.11C133.62 36.16 133.37 36.22 133.12 36.24C132.88 36.28 132.63 36.29 132.38 36.28Z" />
	<path id="Layer" class="shp0" d="M148.12 35.72C148.13 35.76 148.12 35.8 148.12 35.84C148.11 35.87 148.09 35.91 148.07 35.94C148.04 35.97 148.01 36.01 147.98 36.02C147.94 36.04 147.91 36.06 147.87 36.06C147.76 36.1 147.66 36.13 147.55 36.15C147.45 36.18 147.35 36.2 147.24 36.22C147.13 36.23 147.02 36.25 146.92 36.25C146.81 36.27 146.71 36.28 146.6 36.28C146.38 36.3 146.17 36.29 145.96 36.27C145.74 36.23 145.54 36.16 145.35 36.09C145.15 36 144.97 35.88 144.8 35.76C144.63 35.63 144.47 35.47 144.35 35.3C144.16 35.47 143.94 35.62 143.72 35.75C143.49 35.87 143.26 35.99 143.01 36.06C142.76 36.15 142.52 36.21 142.26 36.24C142 36.28 141.74 36.29 141.48 36.28C141.24 36.29 141 36.28 140.76 36.23C140.52 36.2 140.28 36.13 140.06 36.04C139.83 35.95 139.62 35.85 139.42 35.72C139.21 35.58 139.02 35.43 138.85 35.26C138.69 35.08 138.53 34.88 138.4 34.68C138.27 34.46 138.17 34.24 138.08 34.01C137.99 33.78 137.93 33.54 137.89 33.3C137.85 33.05 137.84 32.8 137.85 32.56L137.85 28.18C137.85 27.97 137.96 27.85 138.17 27.85L140.06 27.85C140.27 27.85 140.37 27.97 140.37 28.18L140.37 32.22C140.37 32.35 140.37 32.47 140.39 32.59C140.4 32.72 140.44 32.84 140.48 32.96C140.52 33.07 140.57 33.19 140.64 33.3C140.7 33.41 140.78 33.51 140.85 33.6C140.93 33.69 141.02 33.77 141.12 33.84C141.22 33.9 141.34 33.96 141.44 34C141.55 34.05 141.67 34.08 141.79 34.1C141.91 34.13 142.02 34.13 142.15 34.13C142.27 34.13 142.39 34.13 142.52 34.1C142.64 34.09 142.75 34.06 142.87 34.01C142.99 33.97 143.1 33.91 143.2 33.86C143.3 33.79 143.4 33.71 143.49 33.63C143.58 33.54 143.65 33.45 143.72 33.34C143.79 33.24 143.84 33.13 143.89 33.02C143.93 32.91 143.97 32.78 143.98 32.67C144 32.55 144.01 32.42 144 32.3L144 28.18C144 27.97 144.1 27.85 144.31 27.85L146.22 27.85C146.44 27.85 146.54 27.97 146.54 28.18L146.54 33.45C146.54 33.89 146.73 34.1 147.1 34.1C147.15 34.1 147.19 34.1 147.24 34.1C147.27 34.1 147.31 34.1 147.36 34.09C147.4 34.09 147.45 34.08 147.49 34.08C147.53 34.07 147.57 34.06 147.62 34.05C147.66 34.04 147.71 34.04 147.75 34.04C147.79 34.05 147.83 34.07 147.87 34.09C147.9 34.12 147.93 34.15 147.96 34.19C147.98 34.23 147.99 34.27 147.99 34.32L148.12 35.72Z" />
	<path id="Layer" class="shp0" d="M165.98 35.72C165.99 35.76 165.99 35.8 165.98 35.84C165.98 35.88 165.96 35.92 165.93 35.95C165.91 35.99 165.88 36.01 165.84 36.03C165.8 36.05 165.76 36.06 165.72 36.06C165.62 36.1 165.51 36.13 165.4 36.15C165.29 36.18 165.19 36.2 165.08 36.22C164.98 36.23 164.87 36.25 164.75 36.27C164.64 36.27 164.54 36.28 164.43 36.28C164.26 36.29 164.09 36.28 163.93 36.27C163.76 36.24 163.61 36.21 163.44 36.16C163.28 36.12 163.12 36.06 162.98 35.99C162.83 35.92 162.69 35.83 162.55 35.74C162.43 35.66 162.33 35.56 162.24 35.46C162.13 35.35 162.06 35.22 161.99 35.1C161.92 34.98 161.88 34.83 161.84 34.7C161.81 34.56 161.8 34.42 161.8 34.27L161.8 31.64C161.81 31.52 161.8 31.39 161.78 31.27C161.76 31.15 161.73 31.02 161.7 30.91C161.65 30.79 161.61 30.68 161.54 30.56C161.48 30.46 161.4 30.35 161.33 30.26C161.25 30.17 161.16 30.09 161.07 30.03C160.97 29.96 160.87 29.9 160.75 29.86C160.65 29.81 160.54 29.78 160.42 29.76C160.3 29.74 160.18 29.74 160.07 29.74C159.97 29.74 159.85 29.74 159.75 29.76C159.65 29.78 159.55 29.81 159.45 29.85C159.35 29.89 159.26 29.95 159.18 30.02C159.09 30.07 159.01 30.15 158.94 30.23C158.87 30.32 158.81 30.42 158.75 30.52C158.7 30.63 158.65 30.74 158.61 30.86C158.57 30.97 158.55 31.08 158.53 31.19C158.52 31.32 158.52 31.43 158.52 31.55L158.52 35.68C158.52 35.9 158.42 36.01 158.2 36.01L156.3 36.01C156.26 36.01 156.21 36.01 156.17 36C156.13 35.99 156.09 35.95 156.06 35.93C156.03 35.9 156 35.85 155.99 35.82C155.98 35.77 155.98 35.73 155.98 35.68L155.98 31.64C155.99 31.52 155.98 31.39 155.97 31.27C155.94 31.15 155.92 31.02 155.89 30.91C155.84 30.8 155.8 30.68 155.74 30.58C155.69 30.46 155.62 30.36 155.54 30.26C155.47 30.18 155.39 30.11 155.31 30.04C155.22 29.97 155.13 29.92 155.03 29.87C154.94 29.83 154.84 29.79 154.73 29.77C154.63 29.75 154.53 29.74 154.42 29.74C154.3 29.74 154.19 29.74 154.08 29.76C153.97 29.78 153.85 29.8 153.74 29.85C153.64 29.89 153.54 29.95 153.44 30C153.35 30.07 153.26 30.15 153.18 30.23C153.1 30.32 153.03 30.42 152.97 30.52C152.91 30.62 152.85 30.73 152.82 30.84C152.78 30.96 152.75 31.07 152.73 31.19C152.72 31.32 152.71 31.43 152.72 31.55L152.72 35.68C152.72 35.73 152.72 35.77 152.71 35.82C152.7 35.85 152.66 35.9 152.64 35.93C152.61 35.95 152.56 35.99 152.53 36C152.48 36.01 152.44 36.01 152.39 36.01L150.56 36.01C150.35 36.01 150.25 35.9 150.25 35.68L150.25 30.41C150.26 30.32 150.25 30.23 150.22 30.14C150.19 30.05 150.15 29.97 150.08 29.92C150.02 29.85 149.94 29.8 149.85 29.77C149.76 29.75 149.67 29.74 149.58 29.75L149.21 29.75C148.97 29.75 148.84 29.66 148.84 29.48L148.84 28.16C148.84 28.11 148.84 28.08 148.85 28.03C148.87 28 148.89 27.96 148.91 27.92C148.93 27.89 148.96 27.87 148.99 27.84C149.02 27.82 149.07 27.8 149.1 27.79C149.2 27.75 149.29 27.72 149.39 27.7C149.49 27.66 149.6 27.65 149.7 27.63C149.8 27.62 149.9 27.6 150 27.6C150.11 27.59 150.21 27.59 150.31 27.59C150.52 27.57 150.71 27.57 150.91 27.62C151.1 27.65 151.29 27.72 151.46 27.81C151.64 27.9 151.8 28.02 151.94 28.16C152.09 28.29 152.21 28.45 152.31 28.62C152.51 28.44 152.71 28.28 152.93 28.15C153.16 28.01 153.39 27.89 153.63 27.81C153.88 27.72 154.13 27.65 154.39 27.62C154.65 27.57 154.91 27.57 155.17 27.59C155.42 27.57 155.67 27.59 155.92 27.64C156.17 27.69 156.42 27.75 156.64 27.87C156.88 27.97 157.09 28.09 157.29 28.25C157.49 28.4 157.67 28.58 157.83 28.77C158.01 28.57 158.22 28.39 158.45 28.24C158.67 28.08 158.91 27.96 159.17 27.85C159.43 27.74 159.69 27.68 159.96 27.63C160.22 27.59 160.51 27.57 160.78 27.59C161.02 27.57 161.27 27.59 161.51 27.63C161.75 27.66 161.99 27.73 162.21 27.82C162.44 27.9 162.66 28.01 162.87 28.15C163.07 28.28 163.27 28.44 163.44 28.6C163.61 28.78 163.76 28.97 163.89 29.19C164.02 29.4 164.13 29.62 164.21 29.85C164.3 30.08 164.36 30.32 164.4 30.56C164.44 30.81 164.45 31.06 164.44 31.3L164.44 33.47C164.44 33.89 164.63 34.1 164.99 34.1C165.03 34.1 165.08 34.1 165.12 34.1C165.16 34.1 165.2 34.1 165.25 34.09C165.29 34.09 165.34 34.08 165.38 34.08C165.42 34.07 165.46 34.06 165.51 34.05C165.74 34.05 165.87 34.14 165.88 34.32L165.98 35.72Z" />
	<path id="Layer" fill-rule="evenodd" class="shp0" d="M34.22 26.4C35.06 23.07 36.98 20.13 39.67 18.02C42.38 15.92 45.72 14.77 49.16 14.77C52.58 14.77 55.92 15.92 58.63 18.02C61.33 20.13 63.25 23.07 64.08 26.4L62.73 26.4C62.17 26.39 61.61 26.42 61.04 26.5C60.48 26.59 59.93 26.7 59.39 26.87C58.85 27.04 58.33 27.24 57.82 27.48C57.31 27.73 56.82 28.01 56.36 28.34C56.34 28.36 56.3 28.37 56.28 28.39C56.25 28.41 56.22 28.43 56.19 28.45C56.17 28.47 56.13 28.48 56.11 28.5C56.08 28.52 56.06 28.54 56.02 28.55L55.87 28.55C55.83 28.54 55.81 28.52 55.78 28.5C55.75 28.48 55.72 28.47 55.7 28.45C55.66 28.43 55.64 28.41 55.61 28.39C55.58 28.37 55.55 28.36 55.53 28.34C54.6 27.71 53.56 27.22 52.48 26.89C51.4 26.57 50.28 26.4 49.16 26.4C48.02 26.4 46.9 26.57 45.82 26.89C44.74 27.22 43.71 27.71 42.78 28.34C42.75 28.36 42.72 28.37 42.7 28.39C42.66 28.41 42.64 28.43 42.61 28.45C42.58 28.47 42.55 28.48 42.53 28.5C42.49 28.52 42.47 28.54 42.44 28.55L42.28 28.55C42.25 28.54 42.22 28.52 42.19 28.5C42.17 28.48 42.13 28.47 42.11 28.45C42.08 28.43 42.06 28.41 42.02 28.39C42 28.37 41.97 28.36 41.94 28.34C41.48 28.01 40.99 27.73 40.48 27.48C39.98 27.24 39.45 27.04 38.91 26.87C38.37 26.7 37.82 26.59 37.26 26.5C36.7 26.42 36.13 26.39 35.57 26.4L34.22 26.4ZM60.3 33.42C59.66 33.86 58.97 34.2 58.22 34.44C57.48 34.66 56.72 34.79 55.93 34.79C55.16 34.79 54.39 34.66 53.65 34.44C52.91 34.2 52.21 33.86 51.57 33.42C51.4 33.29 51.22 33.17 51.02 33.06C50.83 32.96 50.64 32.88 50.43 32.82C50.22 32.75 50.01 32.69 49.8 32.66C49.58 32.64 49.36 32.61 49.15 32.63C48.93 32.63 48.71 32.64 48.49 32.67C48.28 32.69 48.07 32.75 47.87 32.82C47.66 32.88 47.46 32.96 47.27 33.07C47.08 33.17 46.89 33.29 46.72 33.42C46.08 33.86 45.38 34.2 44.64 34.44C43.91 34.66 43.13 34.79 42.36 34.79C41.58 34.79 40.81 34.66 40.08 34.44C39.34 34.2 38.64 33.86 38 33.42C37.83 33.29 37.64 33.17 37.45 33.06C37.26 32.96 37.07 32.88 36.85 32.82C36.65 32.75 36.44 32.69 36.22 32.66C36.01 32.64 35.79 32.61 35.57 32.63L33.76 32.63L33.76 29.03L35.63 29.03C36.02 29.02 36.4 29.04 36.79 29.1C37.17 29.15 37.55 29.24 37.92 29.36C38.29 29.48 38.65 29.62 39 29.79C39.35 29.97 39.67 30.17 39.99 30.4C40.34 30.65 40.73 30.86 41.13 30.99C41.55 31.12 41.98 31.19 42.42 31.19C42.85 31.19 43.28 31.12 43.7 30.99C44.1 30.86 44.49 30.65 44.84 30.4C45.48 29.96 46.18 29.61 46.92 29.38C47.66 29.15 48.43 29.03 49.21 29.03C49.99 29.03 50.75 29.15 51.49 29.38C52.24 29.61 52.93 29.96 53.57 30.4C53.92 30.65 54.31 30.86 54.72 30.99C55.13 31.12 55.56 31.19 56 31.19C56.44 31.19 56.87 31.12 57.28 30.99C57.69 30.86 58.08 30.65 58.43 30.4C58.74 30.17 59.07 29.97 59.4 29.8C59.75 29.62 60.1 29.48 60.47 29.37C60.83 29.25 61.2 29.16 61.58 29.11C61.97 29.05 62.35 29.03 62.73 29.03L64.54 29.03L64.54 32.63L62.73 32.63C62.52 32.61 62.29 32.64 62.08 32.66C61.87 32.69 61.65 32.75 61.45 32.82C61.24 32.88 61.04 32.96 60.85 33.06C60.66 33.17 60.47 33.29 60.3 33.42ZM60.3 39.85C59.66 40.29 58.97 40.63 58.22 40.87C57.48 41.09 56.72 41.22 55.93 41.22C55.16 41.22 54.39 41.09 53.65 40.87C52.91 40.63 52.21 40.29 51.57 39.85C51.4 39.72 51.22 39.6 51.02 39.49C50.83 39.39 50.64 39.31 50.43 39.24C50.22 39.18 50.01 39.12 49.8 39.09C49.58 39.07 49.36 39.04 49.15 39.05C48.93 39.05 48.71 39.07 48.49 39.1C48.28 39.12 48.07 39.18 47.87 39.24C47.66 39.31 47.46 39.39 47.27 39.5C47.08 39.6 46.89 39.72 46.72 39.85C46.08 40.29 45.38 40.63 44.64 40.87C43.91 41.09 43.13 41.22 42.36 41.22C41.58 41.22 40.81 41.09 40.08 40.87C39.34 40.63 38.64 40.29 38 39.85C37.83 39.72 37.64 39.6 37.45 39.49C37.26 39.39 37.07 39.31 36.85 39.24C36.65 39.18 36.44 39.12 36.22 39.09C36.01 39.07 35.79 39.04 35.57 39.05L33.76 39.05L33.76 35.46L35.63 35.46C36.02 35.45 36.4 35.47 36.79 35.53C37.17 35.58 37.55 35.67 37.92 35.78C38.29 35.91 38.65 36.05 39 36.22C39.35 36.4 39.67 36.6 39.99 36.83C40.34 37.08 40.73 37.28 41.13 37.42C41.55 37.55 41.98 37.62 42.42 37.62C42.85 37.62 43.28 37.55 43.7 37.42C44.1 37.28 44.49 37.08 44.84 36.83C45.48 36.39 46.18 36.04 46.92 35.81C47.66 35.58 48.43 35.46 49.21 35.46C49.99 35.46 50.75 35.58 51.49 35.81C52.24 36.04 52.93 36.39 53.57 36.83C53.92 37.08 54.31 37.28 54.72 37.42C55.13 37.55 55.56 37.62 56 37.62C56.44 37.62 56.87 37.55 57.28 37.42C57.69 37.28 58.08 37.08 58.43 36.83C58.74 36.6 59.07 36.4 59.4 36.23C59.75 36.05 60.1 35.91 60.47 35.8C60.83 35.68 61.2 35.59 61.58 35.54C61.97 35.48 62.35 35.46 62.73 35.46L64.54 35.46L64.54 39.05L62.73 39.05C62.52 39.04 62.29 39.07 62.08 39.09C61.87 39.12 61.65 39.18 61.45 39.24C61.24 39.31 61.04 39.39 60.85 39.49C60.66 39.6 60.47 39.72 60.3 39.85Z" />
</svg>