<svg version="1.2" baseProfile="tiny-ps" xmlns="http://www.w3.org/2000/svg" viewBox="0 0 200 56" width="200" height="56">
	<title>logo-2-svg</title>
	<style>
		tspan { white-space:pre }
		.shp0 { fill: #394149 } 
	</style>
	<path id="Layer" class="shp0" d="M60.37 23.2C60.78 23.2 60.91 23.34 60.91 23.73L60.91 32.6L65.48 32.6C65.88 32.6 66.02 32.75 66.02 33.14L66.02 33.92C66.02 34.32 65.88 34.46 65.48 34.46L59.46 34.46C59.07 34.46 58.91 34.32 58.91 33.92L58.91 23.73C58.91 23.34 59.07 23.2 59.46 23.2L60.37 23.2Z" />
	<path id="Layer" fill-rule="evenodd" class="shp0" d="M70.01 27.1C70.01 24.52 71.65 22.96 74.51 22.96C77.36 22.96 79 24.52 79 27.1L79 30.55C79 33.14 77.35 34.7 74.51 34.7C71.66 34.7 70.01 33.14 70.01 30.55L70.01 27.1ZM77.11 27.1C77.11 25.65 76.2 24.86 74.56 24.86C72.92 24.86 72.02 25.66 72.02 27.1L72.02 30.58C72.02 32.04 72.92 32.82 74.56 32.82C76.2 32.82 77.11 32.01 77.11 30.58L77.11 27.1Z" />
	<path id="Layer" class="shp0" d="M92.38 28.29C92.82 28.29 92.92 28.44 92.92 28.83L92.92 30.96C92.93 31.2 92.91 31.46 92.85 31.7C92.81 31.94 92.73 32.19 92.63 32.41C92.53 32.64 92.39 32.86 92.25 33.05C92.09 33.25 91.92 33.44 91.73 33.6C91.49 33.79 91.25 33.95 90.98 34.09C90.71 34.24 90.43 34.35 90.15 34.44C89.85 34.53 89.56 34.6 89.26 34.63C88.97 34.66 88.66 34.68 88.36 34.65C85.45 34.65 83.87 33.1 83.87 30.51L83.87 27.04C83.87 24.48 85.51 22.92 88.36 22.92C90.61 22.92 92.07 23.8 92.69 25.57C92.72 25.64 92.74 25.72 92.74 25.78C92.74 25.86 92.72 25.93 92.7 26.01C92.66 26.07 92.61 26.13 92.55 26.17C92.49 26.22 92.43 26.25 92.35 26.26L91.47 26.57C91.09 26.7 90.93 26.62 90.8 26.23C90.71 26 90.57 25.77 90.4 25.58C90.25 25.38 90.04 25.21 89.83 25.09C89.61 24.95 89.37 24.86 89.12 24.81C88.87 24.75 88.62 24.74 88.36 24.77C86.71 24.77 85.81 25.57 85.81 27.01L85.81 30.58C85.81 32.04 86.72 32.82 88.36 32.82C90 32.82 91.01 32.07 91.01 30.97L91.01 30.14L88.57 30.14C88.17 30.14 88.02 29.98 88.02 29.59L88.02 28.83C88.02 28.44 88.17 28.29 88.57 28.29L92.38 28.29Z" />
	<path id="Layer" fill-rule="evenodd" class="shp0" d="M97.56 27.1C97.56 24.52 99.2 22.96 102.06 22.96C104.91 22.96 106.55 24.52 106.55 27.1L106.55 30.55C106.55 33.14 104.9 34.7 102.06 34.7C99.21 34.7 97.56 33.14 97.56 30.55L97.56 27.1ZM104.65 27.1C104.65 25.65 103.74 24.86 102.11 24.86C100.48 24.86 99.56 25.66 99.56 27.1L99.56 30.58C99.56 32.04 100.47 32.82 102.11 32.82C103.75 32.82 104.65 32.01 104.65 30.58L104.65 27.1Z" />
	<path id="Layer" class="shp0" d="M111.84 23.52C111.84 23.27 111.92 23.2 112.17 23.2L112.69 23.2C112.93 23.2 112.99 23.27 112.99 23.52L112.99 34.14C112.99 34.38 112.99 34.46 112.69 34.46L112.17 34.46C111.92 34.46 111.84 34.38 111.84 34.14L111.84 23.52Z" />
	<path id="Layer" fill-rule="evenodd" class="shp0" d="M123.22 23.2C124.16 23.2 125.06 23.56 125.72 24.23C126.38 24.89 126.75 25.78 126.75 26.71C126.75 27.64 126.38 28.54 125.72 29.2C125.06 29.86 124.16 30.23 123.22 30.23L119.85 30.23L119.85 34.14C119.85 34.38 119.8 34.46 119.56 34.46L119.03 34.46C118.8 34.46 118.71 34.38 118.71 34.14L118.71 23.52C118.71 23.27 118.8 23.2 119.03 23.2L123.22 23.2ZM123.12 29.12C123.78 29.12 124.39 28.86 124.85 28.4C125.31 27.94 125.57 27.33 125.57 26.68C125.57 26.03 125.31 25.41 124.85 24.95C124.39 24.49 123.78 24.24 123.12 24.24L119.75 24.24L119.75 29.12L123.12 29.12Z" />
	<path id="Layer" class="shp0" d="M135.53 22.97C135.96 22.93 136.39 22.95 136.82 23.04C137.25 23.13 137.65 23.28 138.02 23.5C138.39 23.72 138.73 24 139.02 24.33C139.3 24.65 139.54 25.01 139.71 25.41C139.8 25.59 139.71 25.74 139.53 25.83L139.03 26.05C138.83 26.13 138.75 26.12 138.63 25.91C138.51 25.61 138.33 25.33 138.11 25.1C137.91 24.85 137.65 24.65 137.38 24.48C137.1 24.32 136.8 24.2 136.48 24.12C136.17 24.06 135.85 24.04 135.53 24.07C133.63 24.07 132.6 24.82 132.6 26.16C132.6 26.36 132.62 26.57 132.69 26.77C132.75 26.96 132.85 27.14 132.99 27.29C133.11 27.45 133.27 27.59 133.45 27.69C133.63 27.79 133.82 27.85 134.02 27.89C134.17 27.93 134.33 27.98 134.48 28.02C134.63 28.06 134.79 28.1 134.94 28.12C135.1 28.16 135.26 28.18 135.42 28.2C135.57 28.22 135.73 28.24 135.89 28.25C136.08 28.26 136.27 28.27 136.46 28.3C136.65 28.32 136.84 28.36 137.03 28.39C137.21 28.43 137.4 28.48 137.58 28.53C137.78 28.58 137.96 28.64 138.13 28.71C138.4 28.8 138.66 28.93 138.9 29.1C139.12 29.28 139.33 29.48 139.48 29.72C139.64 29.96 139.76 30.23 139.83 30.51C139.9 30.79 139.92 31.07 139.89 31.36C139.89 33.45 138.36 34.72 135.55 34.72C135.09 34.78 134.63 34.74 134.18 34.64C133.73 34.54 133.3 34.36 132.92 34.12C132.53 33.87 132.18 33.57 131.9 33.2C131.62 32.84 131.39 32.44 131.25 32C131.22 31.95 131.21 31.92 131.21 31.88C131.21 31.83 131.22 31.79 131.25 31.74C131.26 31.7 131.29 31.66 131.33 31.64C131.36 31.61 131.39 31.58 131.44 31.57L131.93 31.39C131.97 31.38 132.01 31.37 132.06 31.37C132.1 31.37 132.13 31.38 132.18 31.4C132.21 31.42 132.25 31.44 132.28 31.47C132.3 31.51 132.33 31.54 132.34 31.58C132.46 31.9 132.64 32.19 132.85 32.45C133.07 32.72 133.33 32.94 133.62 33.12C133.9 33.3 134.21 33.43 134.54 33.51C134.88 33.59 135.21 33.62 135.55 33.6C137.67 33.6 138.72 32.86 138.72 31.36C138.73 31.17 138.71 30.97 138.64 30.78C138.58 30.6 138.49 30.42 138.38 30.26C138.26 30.11 138.11 29.97 137.94 29.87C137.78 29.76 137.6 29.69 137.4 29.65C137.26 29.6 137.11 29.57 136.97 29.53C136.82 29.49 136.67 29.47 136.52 29.43C136.37 29.41 136.22 29.39 136.07 29.38C135.92 29.36 135.76 29.34 135.62 29.33L134.4 29.18C134.31 29.15 134.21 29.13 134.12 29.11C134.02 29.09 133.93 29.06 133.84 29.04C133.74 29.02 133.65 28.99 133.56 28.96C133.46 28.93 133.37 28.91 133.28 28.87C133.19 28.85 133.1 28.82 133.01 28.78C132.92 28.74 132.84 28.71 132.75 28.66C132.67 28.62 132.58 28.57 132.51 28.52C132.43 28.46 132.36 28.4 132.28 28.35C132.13 28.21 132 28.07 131.89 27.9C131.76 27.74 131.67 27.56 131.6 27.37C131.52 27.19 131.46 27 131.43 26.8C131.38 26.61 131.37 26.41 131.38 26.21C131.46 24.25 132.93 22.97 135.53 22.97Z" />
	<path id="Layer" class="shp0" d="M145.94 30.63C145.99 31.43 146.34 32.17 146.92 32.72C147.49 33.25 148.27 33.56 149.06 33.56C149.85 33.56 150.63 33.25 151.2 32.72C151.79 32.17 152.13 31.43 152.18 30.63L152.18 23.52C152.18 23.27 152.26 23.2 152.51 23.2L153.02 23.2C153.27 23.2 153.35 23.27 153.35 23.52L153.35 30.62C153.35 33.16 151.84 34.7 149.07 34.7C146.29 34.7 144.79 33.16 144.79 30.62L144.79 23.52C144.79 23.27 144.87 23.2 145.1 23.2L145.63 23.2C145.87 23.2 145.94 23.27 145.94 23.52L145.94 30.63Z" />
	<path id="Layer" class="shp0" d="M168.85 23.2C169.1 23.2 169.18 23.27 169.18 23.52L169.18 34.14C169.18 34.38 169.1 34.46 168.85 34.46L168.38 34.46C168.15 34.46 168.07 34.38 168.07 34.14L168.07 27.68C168.07 27.44 168.07 27.2 168.08 26.97C168.09 26.73 168.1 26.5 168.11 26.26C168.13 26.03 168.15 25.79 168.18 25.56C168.2 25.33 168.22 25.1 168.26 24.86L168.19 24.86C168.1 25.08 168.01 25.29 167.92 25.5C167.82 25.7 167.72 25.92 167.62 26.12C167.52 26.33 167.42 26.53 167.3 26.73C167.19 26.94 167.08 27.14 166.97 27.34L164.55 31.58C164.54 31.62 164.52 31.65 164.49 31.68C164.46 31.72 164.44 31.74 164.4 31.76C164.37 31.79 164.34 31.81 164.29 31.82C164.26 31.83 164.22 31.83 164.18 31.83L163.87 31.83C163.82 31.83 163.79 31.83 163.74 31.82C163.71 31.81 163.67 31.79 163.64 31.76C163.61 31.74 163.57 31.72 163.55 31.68C163.52 31.65 163.49 31.62 163.48 31.58L161.03 27.29C160.92 27.09 160.82 26.9 160.72 26.7C160.62 26.5 160.52 26.3 160.43 26.1C160.34 25.89 160.25 25.68 160.16 25.48C160.07 25.27 159.99 25.07 159.91 24.85L159.84 24.85C159.88 25.09 159.9 25.32 159.92 25.56C159.94 25.79 159.96 26.03 159.98 26.26C159.99 26.5 160 26.73 160.01 26.98C160.01 27.22 160.02 27.45 160.02 27.69L160.02 34.14C160.02 34.38 159.94 34.46 159.7 34.46L159.26 34.46C159.01 34.46 158.93 34.38 158.93 34.14L158.93 23.52C158.93 23.27 159.01 23.2 159.26 23.2L159.66 23.2C159.71 23.2 159.75 23.2 159.8 23.21C159.84 23.22 159.89 23.23 159.93 23.25C159.97 23.27 160 23.31 160.03 23.34C160.07 23.37 160.09 23.41 160.11 23.45L164.04 30.42L167.96 23.52C168.08 23.28 168.15 23.25 168.39 23.25L168.85 23.2Z" />
	<path id="Layer" fill-rule="evenodd" class="shp0" d="M40.38 31.98L40.38 40.07C40.33 40.38 40.21 40.66 40 40.87C39.79 41.07 39.51 41.19 39.2 41.19C38.91 41.19 38.63 41.07 38.42 40.87C38.2 40.66 38.08 40.38 38.08 40.07L38.03 31.99C38.11 32.04 38.2 32.1 38.29 32.14C38.38 32.19 38.47 32.23 38.56 32.27C38.66 32.3 38.76 32.32 38.85 32.33C38.96 32.36 39.06 32.37 39.16 32.37C39.27 32.37 39.37 32.37 39.48 32.35C39.6 32.33 39.7 32.31 39.8 32.28C39.91 32.24 40.01 32.2 40.1 32.16C40.2 32.1 40.29 32.04 40.38 31.98ZM50.38 29.64C50.54 29.62 50.71 29.64 50.85 29.69C51.01 29.75 51.15 29.84 51.27 29.95C51.38 30.06 51.47 30.2 51.53 30.34C51.58 30.49 51.62 30.65 51.61 30.81L51.55 32.17C51.55 32.47 51.44 32.75 51.22 32.96C51.01 33.16 50.73 33.29 50.43 33.29C50.13 33.29 49.85 33.16 49.64 32.96C49.43 32.75 49.3 32.47 49.26 32.17L49.26 30.76C49.26 30.61 49.29 30.46 49.35 30.33C49.4 30.2 49.48 30.07 49.58 29.96C49.7 29.86 49.82 29.78 49.96 29.72C50.09 29.67 50.24 29.64 50.38 29.64ZM35.48 35.04C35.6 35.06 35.7 35.04 35.81 35.03C35.91 35.02 36.02 35.01 36.12 34.98C36.24 34.96 36.34 34.92 36.44 34.88C36.53 34.83 36.63 34.78 36.72 34.72L36.72 42.78C36.72 43.1 36.6 43.4 36.37 43.61C36.16 43.84 35.85 43.96 35.54 43.96C35.22 43.96 34.92 43.84 34.71 43.61C34.48 43.4 34.36 43.1 34.36 42.78L34.36 34.66C34.44 34.72 34.53 34.78 34.62 34.82C34.71 34.87 34.8 34.91 34.89 34.93C34.99 34.97 35.09 35 35.18 35.01C35.28 35.03 35.38 35.04 35.48 35.04ZM46.66 27.23C46.82 27.22 46.99 27.23 47.15 27.28C47.29 27.34 47.44 27.42 47.55 27.53C47.67 27.64 47.76 27.78 47.82 27.93C47.88 28.08 47.91 28.25 47.9 28.4L47.9 34.56C47.9 34.88 47.78 35.18 47.55 35.39C47.34 35.62 47.03 35.74 46.72 35.74C46.4 35.74 46.1 35.62 45.89 35.39C45.66 35.18 45.54 34.88 45.54 34.56L45.54 28.32C45.54 28.17 45.57 28.02 45.63 27.89C45.69 27.74 45.78 27.62 45.89 27.51C46 27.41 46.12 27.33 46.27 27.27C46.42 27.22 46.56 27.19 46.72 27.2L46.66 27.23ZM42.93 29.62C43.04 29.62 43.16 29.62 43.26 29.6C43.37 29.59 43.48 29.57 43.58 29.53C43.69 29.5 43.79 29.46 43.89 29.41C43.99 29.36 44.08 29.3 44.17 29.23L44.17 37.36C44.17 37.68 44.04 37.98 43.82 38.19C43.61 38.42 43.3 38.54 42.99 38.54C42.67 38.54 42.37 38.42 42.16 38.19C41.93 37.98 41.81 37.68 41.81 37.36L41.81 29.22C41.9 29.28 41.99 29.33 42.08 29.38C42.17 29.43 42.27 29.47 42.37 29.5C42.47 29.53 42.57 29.56 42.67 29.58C42.78 29.59 42.89 29.6 42.99 29.6L42.93 29.62ZM32.85 36.24C32.8 36.37 32.72 36.49 32.62 36.58C32.53 36.68 32.4 36.76 32.28 36.81C32.16 36.87 32.01 36.89 31.88 36.89L31.63 36.89C31.49 36.89 31.35 36.87 31.22 36.81C31.1 36.76 30.98 36.68 30.89 36.58C30.79 36.49 30.71 36.37 30.65 36.24C30.6 36.12 30.57 35.97 30.57 35.84L30.57 13.09C30.57 12.96 30.61 12.82 30.65 12.69C30.71 12.57 30.79 12.45 30.89 12.35C30.99 12.26 31.1 12.19 31.22 12.13C31.36 12.07 31.49 12.05 31.63 12.05L31.88 12.05C32.01 12.05 32.15 12.07 32.28 12.13C32.4 12.19 32.52 12.26 32.62 12.35C32.72 12.45 32.8 12.57 32.85 12.69C32.9 12.82 32.93 12.96 32.93 13.09L32.93 35.84C32.93 35.97 32.91 36.12 32.85 36.24ZM35.61 34.18L35.36 34.18C35.22 34.18 35.08 34.16 34.96 34.1C34.83 34.05 34.71 33.97 34.62 33.87C34.52 33.78 34.44 33.66 34.38 33.53C34.33 33.41 34.3 33.26 34.3 33.13L34.3 15.8C34.3 15.67 34.34 15.53 34.38 15.4C34.44 15.28 34.52 15.16 34.62 15.06C34.72 14.97 34.83 14.9 34.96 14.84C35.09 14.78 35.22 14.76 35.36 14.76L35.61 14.76C35.74 14.76 35.88 14.78 36.01 14.84C36.13 14.9 36.25 14.97 36.35 15.06C36.45 15.16 36.53 15.28 36.58 15.4C36.63 15.53 36.66 15.67 36.66 15.8L36.66 33.15C36.66 33.29 36.64 33.43 36.58 33.56C36.53 33.68 36.45 33.8 36.35 33.89C36.26 33.99 36.13 34.07 36.01 34.13C35.89 34.18 35.74 34.2 35.61 34.2L35.61 34.18ZM39.07 31.52C38.93 31.52 38.8 31.49 38.66 31.44C38.54 31.38 38.43 31.3 38.33 31.21C38.24 31.11 38.16 31 38.1 30.88C38.04 30.74 38.02 30.61 38.02 30.48L38.02 18.49C38.02 18.36 38.04 18.22 38.1 18.09C38.15 17.96 38.22 17.84 38.33 17.75C38.43 17.65 38.54 17.57 38.66 17.52C38.8 17.46 38.93 17.44 39.07 17.44L39.33 17.44C39.46 17.44 39.6 17.47 39.73 17.52C39.85 17.57 39.97 17.65 40.07 17.75C40.16 17.85 40.24 17.96 40.29 18.09C40.35 18.22 40.37 18.36 40.37 18.49L40.37 30.48C40.37 30.61 40.35 30.74 40.29 30.88C40.24 31 40.16 31.11 40.07 31.21C39.97 31.3 39.85 31.38 39.73 31.44C39.6 31.49 39.46 31.52 39.33 31.52L39.07 31.52ZM42.81 28.77C42.67 28.77 42.54 28.75 42.4 28.69C42.28 28.64 42.17 28.56 42.07 28.47C41.97 28.37 41.89 28.26 41.83 28.13C41.79 28 41.75 27.87 41.75 27.73L41.75 21.28C41.74 21.13 41.76 20.99 41.81 20.85C41.87 20.72 41.94 20.6 42.03 20.5C42.13 20.38 42.26 20.31 42.39 20.25C42.52 20.19 42.66 20.16 42.81 20.16L43.06 20.16C43.19 20.16 43.34 20.18 43.46 20.24C43.58 20.29 43.71 20.37 43.8 20.47C43.9 20.56 43.98 20.69 44.03 20.81C44.09 20.93 44.11 21.08 44.11 21.21L44.11 27.71C44.11 27.84 44.09 27.99 44.03 28.11C43.98 28.25 43.91 28.36 43.81 28.46C43.71 28.56 43.6 28.64 43.46 28.69C43.34 28.75 43.19 28.77 43.06 28.77L42.81 28.77ZM46.53 26.36C46.39 26.36 46.25 26.34 46.12 26.29C46 26.23 45.88 26.15 45.79 26.05C45.69 25.96 45.61 25.84 45.55 25.72C45.49 25.59 45.47 25.45 45.47 25.31L45.47 23.64C45.47 23.51 45.51 23.37 45.55 23.24C45.61 23.12 45.69 23 45.79 22.9C45.89 22.81 46 22.74 46.12 22.68C46.26 22.62 46.39 22.6 46.53 22.6L46.78 22.6C46.91 22.6 47.04 22.62 47.18 22.68C47.3 22.74 47.42 22.81 47.52 22.9C47.62 23 47.7 23.12 47.75 23.24C47.8 23.37 47.83 23.51 47.83 23.64L47.83 25.31C47.83 25.45 47.81 25.58 47.75 25.72C47.7 25.84 47.62 25.95 47.53 26.05C47.43 26.15 47.31 26.23 47.19 26.29C47.06 26.33 46.92 26.36 46.79 26.36L46.53 26.36Z" />
</svg>