<svg version="1.2" baseProfile="tiny-ps" xmlns="http://www.w3.org/2000/svg" viewBox="0 0 200 56" width="200" height="56">
	<title>logo-1-svg</title>
	<style>
		tspan { white-space:pre }
		.shp0 { fill: #394149 } 
	</style>
	<path id="Layer" fill-rule="evenodd" class="shp0" d="M69.11 19.33L72.72 19.33L72.72 33.89L69.11 33.89L69.11 19.33ZM74.16 28.41C74.16 24.81 76.4 22.65 79.78 22.65C83.15 22.65 85.39 24.81 85.39 28.41C85.39 32.02 83.22 34.2 79.78 34.2C76.33 34.2 74.16 32.1 74.16 28.41ZM81.82 28.41C81.82 26.43 81.04 25.27 79.81 25.27C78.57 25.27 77.81 26.39 77.81 28.41C77.81 30.44 78.57 31.55 79.81 31.55C81.04 31.55 81.84 30.44 81.84 28.43L81.82 28.41ZM86.83 34.64L90.31 34.64C90.39 34.83 90.51 35 90.64 35.15C90.78 35.3 90.93 35.43 91.1 35.53C91.28 35.63 91.47 35.71 91.66 35.74C91.87 35.78 92.07 35.78 92.27 35.76C93.65 35.76 94.37 35.02 94.37 33.92L94.37 31.93C94.22 32.23 94.03 32.51 93.81 32.76C93.57 33.02 93.3 33.23 93 33.41C92.71 33.59 92.38 33.71 92.04 33.79C91.71 33.87 91.36 33.89 91.01 33.87C88.37 33.87 86.62 31.86 86.62 28.41C86.62 24.96 88.29 22.81 91.11 22.81C91.47 22.79 91.82 22.83 92.17 22.92C92.51 23 92.83 23.15 93.13 23.34C93.44 23.53 93.71 23.76 93.93 24.04C94.11 24.24 94.26 24.47 94.38 24.71L94.38 22.9L97.96 22.9L97.96 33.81C97.96 36.44 95.62 38.09 92.18 38.09C89.06 38.08 87.06 36.66 86.85 34.65L86.83 34.64ZM94.37 31.93C94.37 31.92 94.38 31.92 94.38 31.91L94.37 31.91L94.37 31.93ZM94.38 24.71L94.38 24.93L94.48 24.93C94.45 24.85 94.42 24.79 94.38 24.71ZM94.38 28.41C94.38 26.66 93.57 25.55 92.29 25.55C91.01 25.55 90.22 26.67 90.22 28.41C90.22 30.16 91 31.19 92.29 31.19C93.58 31.19 94.38 30.24 94.38 28.41ZM99.38 28.41C99.38 24.81 101.63 22.65 105 22.65C108.37 22.65 110.62 24.81 110.62 28.41C110.62 32.02 108.44 34.2 105 34.2C101.56 34.2 99.4 32.1 99.4 28.41L99.38 28.41ZM107.04 28.41C107.04 26.43 106.26 25.27 105.03 25.27C103.81 25.27 103.03 26.39 103.03 28.41C103.03 30.44 103.8 31.55 105.03 31.55C106.27 31.55 107.07 30.44 107.07 28.43L107.04 28.41ZM112.08 20.25C112.04 19.5 112.47 18.8 113.16 18.5C113.84 18.19 114.65 18.32 115.19 18.85C115.74 19.36 115.91 20.16 115.63 20.85C115.35 21.55 114.67 22.01 113.92 22.01C113.69 22.02 113.45 21.97 113.24 21.88C113.01 21.81 112.81 21.67 112.64 21.52C112.47 21.35 112.34 21.16 112.25 20.94C112.16 20.73 112.1 20.5 112.1 20.26L112.08 20.25ZM112.08 22.89L115.73 22.89L115.73 33.94L112.13 33.94L112.08 22.89ZM128.87 28.41C128.87 32.01 127.25 34.09 124.49 34.09C124.15 34.12 123.8 34.08 123.45 34C123.11 33.91 122.79 33.78 122.48 33.6C122.19 33.41 121.92 33.19 121.69 32.93C121.45 32.66 121.27 32.37 121.12 32.04L121.06 32.04L121.06 37.49L117.45 37.49L117.45 22.93L121.03 22.93L121.03 24.9L121.1 24.9C121.24 24.57 121.43 24.27 121.65 24C121.88 23.72 122.15 23.5 122.45 23.31C122.75 23.12 123.08 22.97 123.42 22.88C123.76 22.79 124.11 22.75 124.47 22.77C127.3 22.75 128.93 24.82 128.93 28.43L128.87 28.41ZM125.19 28.41C125.19 26.67 124.37 25.54 123.1 25.54C121.83 25.54 121.03 26.66 121.02 28.41C121.01 30.17 121.83 31.28 123.1 31.28C124.37 31.28 125.26 30.24 125.26 28.43L125.19 28.41ZM135.02 22.64C138.04 22.64 139.92 24.06 139.94 26.34L136.65 26.34C136.65 25.55 135.99 25.05 135 25.05C134.01 25.05 133.54 25.44 133.54 26.01C133.54 26.58 133.96 26.76 134.79 26.92L137.1 27.4C139.35 27.87 140.25 28.76 140.25 30.43C140.25 32.67 138.17 34.19 135.08 34.19C131.99 34.19 129.98 32.72 129.83 30.46L133.33 30.46C133.43 31.28 134.08 31.76 135.13 31.76C136.19 31.76 136.69 31.43 136.69 30.83C136.69 30.24 136.35 30.14 135.48 29.96L133.39 29.52C131.22 29.06 130.09 27.93 130.09 26.24C130.16 24.05 132.04 22.65 135.09 22.65L135.02 22.64ZM152.33 33.92L148.83 33.92L148.83 31.85L148.76 31.85C148.66 32.2 148.52 32.52 148.3 32.82C148.1 33.11 147.84 33.35 147.56 33.57C147.27 33.77 146.94 33.92 146.6 34.03C146.26 34.13 145.9 34.17 145.54 34.15C145 34.17 144.46 34.07 143.96 33.87C143.45 33.66 143 33.35 142.62 32.96C142.25 32.57 141.96 32.1 141.78 31.58C141.6 31.08 141.53 30.53 141.57 29.99L141.57 22.9L145.18 22.9L145.18 29.22C145.18 30.52 145.87 31.23 146.99 31.23C147.25 31.23 147.52 31.17 147.75 31.06C147.99 30.95 148.2 30.79 148.37 30.59C148.55 30.39 148.67 30.15 148.74 29.89C148.82 29.65 148.83 29.38 148.8 29.12L148.8 22.9L152.39 22.9L152.33 33.92ZM154.07 22.89L157.57 22.89L157.57 25.02L157.65 25.02C157.75 24.68 157.9 24.36 158.1 24.07C158.3 23.78 158.55 23.53 158.83 23.32C159.11 23.11 159.43 22.95 159.76 22.84C160.1 22.74 160.46 22.68 160.81 22.69C161.16 22.66 161.52 22.69 161.87 22.79C162.2 22.89 162.52 23.05 162.8 23.26C163.09 23.49 163.33 23.74 163.51 24.05C163.7 24.35 163.82 24.68 163.89 25.03L164.04 25.03C164.16 24.68 164.33 24.35 164.54 24.06C164.76 23.76 165.03 23.5 165.33 23.3C165.63 23.08 165.97 22.93 166.33 22.81C166.67 22.71 167.04 22.67 167.42 22.69C167.91 22.67 168.4 22.76 168.85 22.94C169.31 23.13 169.73 23.41 170.07 23.76C170.42 24.11 170.67 24.54 170.84 25C171.01 25.46 171.08 25.95 171.04 26.44L171.04 33.94L167.42 33.94L167.42 27.36C167.42 26.24 166.89 25.61 165.87 25.61C165.64 25.61 165.42 25.66 165.2 25.75C165 25.84 164.81 25.97 164.66 26.14C164.52 26.31 164.4 26.51 164.34 26.72C164.27 26.95 164.25 27.17 164.28 27.4L164.28 33.94L160.84 33.94L160.84 27.33C160.84 26.21 160.29 25.61 159.3 25.61C159.08 25.61 158.84 25.66 158.64 25.75C158.43 25.85 158.24 25.98 158.09 26.15C157.93 26.32 157.82 26.52 157.75 26.75C157.69 26.96 157.66 27.19 157.7 27.42L157.7 33.94L154.09 33.94L154.07 22.89Z" />
	<path id="Layer" fill-rule="evenodd" class="shp0" d="M61.98 20.28C61.98 21.06 61.9 21.83 61.73 22.59C61.57 23.34 61.33 24.08 61.01 24.8C60.7 25.5 60.3 26.17 59.84 26.8C59.38 27.42 58.87 28 58.28 28.52L58.28 42.3L28.67 42.3L28.67 12.8L42.7 12.8C44.21 11.16 46.18 10.01 48.36 9.51C50.54 9 52.82 9.16 54.9 9.97C56.99 10.77 58.78 12.2 60.04 14.03C61.3 15.88 61.98 18.05 61.98 20.28ZM56.28 20.28C56.28 19.58 56.13 18.87 55.87 18.22C55.6 17.56 55.19 16.97 54.69 16.48C54.19 15.97 53.6 15.58 52.93 15.31C52.28 15.03 51.57 14.9 50.87 14.9C48.67 14.9 46.7 16.22 45.87 18.23C45.02 20.25 45.48 22.57 47.04 24.11C48.6 25.66 50.92 26.12 52.94 25.28C54.97 24.44 56.28 22.47 56.28 20.28ZM52.58 31.21C52.44 31.24 52.3 31.26 52.16 31.28C52.01 31.29 51.88 31.3 51.73 31.33C51.58 31.34 51.44 31.34 51.29 31.35C51.16 31.36 51.01 31.36 50.87 31.36C49.4 31.36 47.97 31.07 46.62 30.51C45.27 29.96 44.04 29.14 43.01 28.11C41.98 27.08 41.16 25.86 40.61 24.52C40.04 23.17 39.75 21.74 39.75 20.28C39.75 20.14 39.76 19.98 39.76 19.84C39.78 19.68 39.79 19.53 39.8 19.38C39.81 19.23 39.83 19.07 39.85 18.93C39.88 18.78 39.9 18.63 39.92 18.48L34.37 18.48L34.37 36.62L52.58 36.62L52.58 31.21Z" />
</svg>