<svg version="1.2" baseProfile="tiny-ps" xmlns="http://www.w3.org/2000/svg" viewBox="0 0 200 56" width="200" height="56">
	<title>logo-4-svg</title>
	<style>
		tspan { white-space:pre }
		.shp0 { fill: #394149 } 
	</style>
	<path id="Layer" fill-rule="evenodd" class="shp0" d="M51.94 18.36L54.19 18.36L54.19 33.95L60.93 33.95L60.93 36.19L51.94 36.19L51.94 18.36ZM74.16 22.5C75.2 25.02 74.63 27.91 72.7 29.83C70.78 31.75 67.88 32.32 65.35 31.28C62.83 30.24 61.19 27.8 61.19 25.08C61.19 24.19 61.37 23.32 61.71 22.5C62.04 21.69 62.54 20.94 63.17 20.33C63.79 19.7 64.54 19.21 65.35 18.87C66.17 18.54 67.04 18.36 67.93 18.36C70.66 18.36 73.11 19.99 74.16 22.5ZM67.93 29.56C69.75 29.56 71.39 28.47 72.09 26.79C72.78 25.12 72.39 23.2 71.11 21.91C69.82 20.63 67.89 20.25 66.21 20.93C64.53 21.63 63.44 23.26 63.44 25.08C63.44 25.66 63.56 26.24 63.79 26.78C64.01 27.33 64.35 27.82 64.76 28.24C65.18 28.64 65.67 28.97 66.21 29.2C66.76 29.42 67.35 29.53 67.93 29.53L67.93 29.56ZM63.44 33.97L72.43 33.97L72.43 36.21L63.44 36.21L63.44 33.97ZM92.2 36.21L89.96 36.21L89.96 34.61C89.6 34.85 89.21 35.08 88.82 35.28C88.43 35.47 88.02 35.64 87.61 35.76C87.18 35.9 86.75 36 86.33 36.06C85.89 36.13 85.45 36.16 85.01 36.16C81.94 36.19 79.08 34.64 77.42 32.09C75.74 29.52 75.49 26.29 76.76 23.51C78.03 20.72 80.63 18.77 83.66 18.33C86.7 17.9 89.75 19.04 91.75 21.35L90.1 22.81C88.57 21.11 86.29 20.31 84.03 20.65C81.78 21.01 79.85 22.48 78.92 24.56C77.99 26.63 78.18 29.05 79.43 30.96C80.67 32.87 82.81 34.01 85.09 34.01C85.55 34.01 86.02 33.97 86.47 33.87C86.93 33.77 87.37 33.62 87.8 33.43C88.22 33.24 88.62 33 88.99 32.73C89.37 32.45 89.71 32.12 90.01 31.77L83.94 31.77L83.94 29.53L92.22 29.53L92.2 36.21ZM100.47 18.4C103.2 18.4 105.65 20.04 106.7 22.55C107.74 25.07 107.17 27.96 105.24 29.87C103.31 31.8 100.42 32.37 97.89 31.33C95.37 30.28 93.73 27.84 93.73 25.12C93.72 24.24 93.9 23.35 94.24 22.53C94.57 21.71 95.07 20.97 95.7 20.33C96.33 19.7 97.08 19.21 97.9 18.86C98.72 18.52 99.61 18.36 100.49 18.36L100.47 18.4ZM100.47 29.6C102.29 29.6 103.93 28.52 104.63 26.84C105.31 25.17 104.93 23.24 103.65 21.95C102.36 20.68 100.43 20.29 98.75 20.98C97.07 21.67 95.98 23.31 95.98 25.12C95.99 25.7 96.11 26.29 96.34 26.82C96.57 27.36 96.91 27.84 97.33 28.26C97.74 28.66 98.24 28.99 98.79 29.21C99.33 29.42 99.91 29.53 100.49 29.53L100.47 29.6ZM95.98 34.01L104.97 34.01L104.97 36.25L95.98 36.25L95.98 34.01ZM109.61 18.36L111.85 18.36L111.85 36.16L109.61 36.16L109.61 18.36ZM114.97 18.36L117.21 18.36C117.25 18.36 117.27 18.36 117.3 18.35C117.33 18.35 117.36 18.35 117.38 18.35C117.42 18.35 117.45 18.35 117.47 18.35C117.51 18.36 117.53 18.36 117.56 18.36C119.46 18.16 121.37 18.76 122.79 20.04C124.21 21.31 125.03 23.13 125.03 25.04C125.03 26.95 124.21 28.76 122.79 30.04C121.37 31.32 119.46 31.92 117.56 31.72L117.21 31.72L117.21 36.2L114.97 36.2L114.97 18.36ZM117.2 20.65L117.21 20.65L117.21 20.6L117.2 20.65ZM117.21 29.46L117.56 29.46C118.84 29.62 120.15 29.23 121.11 28.38C122.09 27.53 122.65 26.31 122.65 25.01C122.65 23.72 122.09 22.5 121.11 21.65C120.15 20.8 118.84 20.41 117.56 20.57C117.53 20.57 117.51 20.59 117.47 20.59C117.44 20.6 117.4 20.6 117.38 20.61C117.35 20.61 117.31 20.62 117.29 20.63C117.27 20.63 117.24 20.64 117.21 20.65L117.21 29.46ZM131.74 20.96C131.45 20.65 131.09 20.44 130.69 20.35C130.28 20.25 129.85 20.27 129.47 20.4C129.08 20.53 128.73 20.78 128.47 21.1C128.2 21.41 128.04 21.81 128 22.22L128 22.4C128 23.39 128.69 24.05 130.02 24.14C135.17 24.45 137.53 26.86 137.53 30.04L137.53 30.24C137.39 31.49 136.9 32.69 136.11 33.68C135.31 34.66 134.25 35.4 133.04 35.81C131.84 36.22 130.55 36.27 129.31 35.95C128.09 35.65 126.97 34.99 126.1 34.07L127.82 32.75C128.02 32.96 128.25 33.15 128.48 33.32C128.72 33.49 128.98 33.62 129.25 33.73C129.53 33.85 129.81 33.92 130.09 33.97C130.38 34.03 130.67 34.04 130.97 34.03C131.51 34.06 132.03 33.98 132.55 33.8C133.06 33.63 133.53 33.36 133.93 33.02C134.34 32.67 134.67 32.24 134.92 31.76C135.17 31.29 135.31 30.78 135.37 30.24L135.37 30.08C135.37 27.09 132.43 26.54 129.88 26.3C127.52 26.07 125.82 24.61 125.82 22.49L125.82 22.4C125.87 21.85 126.01 21.32 126.25 20.83C126.49 20.34 126.82 19.89 127.22 19.53C127.64 19.16 128.11 18.87 128.63 18.68C129.13 18.49 129.69 18.4 130.24 18.41C130.53 18.4 130.82 18.42 131.11 18.48C131.39 18.52 131.69 18.61 131.96 18.73C132.22 18.84 132.48 18.97 132.72 19.14C132.96 19.3 133.17 19.48 133.37 19.68L131.74 20.96ZM133.37 19.68C133.37 19.68 133.37 19.68 133.37 19.68L133.4 19.64L133.39 19.7C133.38 19.69 133.37 19.68 133.37 19.68ZM146.33 33.89C149.12 33.89 151.34 30.88 151.34 27.17L151.34 18.21L153.58 18.21L153.58 27.17C153.58 32.1 150.35 36.08 146.37 36.08C142.39 36.08 139.16 32.1 139.16 27.17L139.16 18.21L141.4 18.21L141.4 27.17C141.31 30.93 143.53 33.95 146.31 33.95L146.33 33.89ZM170.83 36.13L168.58 36.13L168.58 25.04L163.4 31.76L158.22 25.04L158.22 36.16L155.98 36.16L155.98 18.36L163.39 28.09L170.81 18.36L170.83 36.13Z" />
	<path id="Layer" fill-rule="evenodd" class="shp0" d="M41.16 34.1L36.12 37.7L36.12 46.46L33.97 46.46L33.97 37.7L28.93 34.1L28.93 15.68C28.93 14.07 29.57 12.51 30.72 11.37C31.87 10.23 33.43 9.59 35.04 9.59C36.66 9.59 38.22 10.23 39.37 11.37C40.52 12.51 41.16 14.07 41.16 15.68L41.16 34.1ZM39 23.3L36.12 26.16L36.12 28.85L39 25.98L39 23.3ZM31.13 25.98L34.01 28.85L34.01 26.16L31.13 23.3L31.13 25.98ZM39 17.47L35.04 21.41L31.09 17.47L31.09 20.16L35.04 24.19L39 20.25L39 17.47ZM35.04 11.69C34.61 11.69 34.18 11.77 33.76 11.92C33.36 12.05 32.98 12.26 32.63 12.53C32.28 12.8 31.99 13.12 31.75 13.48C31.52 13.84 31.34 14.25 31.22 14.66L35.04 18.46L38.87 14.66C38.75 14.25 38.57 13.85 38.33 13.5C38.09 13.14 37.79 12.82 37.45 12.56C37.1 12.3 36.72 12.08 36.31 11.95C35.91 11.82 35.47 11.74 35.04 11.74L35.04 11.69ZM33.97 35.06L33.97 31.85L31.09 28.99L31.09 33.02L33.97 35.06ZM39 33.01L39 28.99L36.12 31.85L36.12 35.07L39 33.01Z" />
</svg>